<?xml version="1.0" standalone="no"?>
<!DOCTYPE svg PUBLIC "-//W3C//DTD SVG 20010904//EN"
 "http://www.w3.org/TR/2001/REC-SVG-20010904/DTD/svg10.dtd">
<svg version="1.0" xmlns="http://www.w3.org/2000/svg"
 width="512.000000pt" height="512.000000pt" viewBox="0 0 512.000000 512.000000"
 preserveAspectRatio="xMidYMid meet">
<metadata>
Created by potrace 1.16, written by Peter Selinger 2001-2019
</metadata>
<g transform="translate(0.000000,512.000000) scale(0.100000,-0.100000)"
fill="#000000" stroke="none">
<path d="M3910 4970 l0 -150 342 0 343 0 -560 -561 c-308 -308 -631 -628 -718
-711 l-158 -152 -599 599 -599 599 -958 -954 c-527 -525 -959 -957 -961 -960
-1 -3 47 -55 108 -115 l110 -110 768 765 c422 421 804 801 850 845 l82 80 600
-600 600 -600 823 823 c452 452 825 822 830 822 4 0 7 -151 7 -335 l0 -335
150 0 150 0 0 600 0 600 -605 0 -605 0 0 -150z"/>
<path d="M3910 1810 l0 -1510 -150 0 -150 0 0 910 0 910 -450 0 -450 0 0 -910
0 -910 -150 0 -150 0 0 1210 0 1210 -450 0 -450 0 0 -1210 0 -1210 -150 0
-150 0 0 760 0 760 -450 0 -450 0 0 -760 0 -760 -155 0 -155 0 0 -150 0 -150
2560 0 2560 0 0 150 0 150 -155 0 -155 0 0 1510 0 1510 -450 0 -450 0 0 -1510z
m600 -150 l0 -1360 -150 0 -150 0 0 1360 0 1360 150 0 150 0 0 -1360z m-2400
-300 l0 -1060 -150 0 -150 0 0 1060 0 1060 150 0 150 0 0 -1060z m1200 -300
l0 -760 -150 0 -150 0 0 760 0 760 150 0 150 0 0 -760z m-2400 -150 l0 -610
-150 0 -150 0 0 610 0 610 150 0 150 0 0 -610z"/>
</g>
</svg>
