<?xml version="1.0" standalone="no"?>
<!DOCTYPE svg PUBLIC "-//W3C//DTD SVG 20010904//EN"
 "http://www.w3.org/TR/2001/REC-SVG-20010904/DTD/svg10.dtd">
<svg version="1.0" xmlns="http://www.w3.org/2000/svg"
 width="512.000000pt" height="512.000000pt" viewBox="0 0 512.000000 512.000000"
 preserveAspectRatio="xMidYMid meet">
<metadata>
Created by potrace 1.16, written by Peter Selinger 2001-2019
</metadata>
<g transform="translate(0.000000,512.000000) scale(0.100000,-0.100000)"
fill="#000000" stroke="none">
<path d="M4367 4936 c-73 -30 -134 -80 -180 -148 -56 -82 -1102 -1900 -1115
-1938 -16 -45 -15 -133 2 -174 19 -46 69 -100 122 -131 l45 -26 -32 -57 c-17
-31 -35 -61 -39 -65 -4 -5 -36 2 -71 13 -175 59 -404 36 -569 -57 -77 -44
-175 -129 -225 -195 -153 -203 -189 -427 -109 -678 97 -308 445 -525 771 -480
170 23 312 92 423 203 149 152 216 332 207 557 -8 197 -78 353 -216 484 l-62
59 23 43 c47 90 45 89 111 53 103 -55 230 -38 303 42 41 45 1121 1918 1147
1989 27 76 27 196 0 267 -45 114 -152 214 -266 248 -79 23 -200 19 -270 -9z
m237 -160 c18 -7 49 -28 70 -46 87 -77 104 -181 47 -286 -17 -32 -269 -470
-559 -972 -446 -773 -532 -917 -556 -927 -17 -7 -37 -10 -45 -7 -37 14 -307
175 -318 189 -7 9 -13 28 -13 41 0 30 1079 1903 1124 1950 17 19 47 42 66 52
42 23 136 26 184 6z m-1731 -2541 c-177 -151 -407 -550 -438 -758 -4 -26 -11
-50 -16 -52 -4 -3 -19 16 -33 43 -104 205 -66 454 95 626 107 115 232 175 363
176 l70 0 -41 -35z m299 -74 c28 -108 -74 -396 -215 -609 -99 -147 -249 -292
-320 -308 -35 -7 -37 -6 -48 46 -46 202 255 748 486 881 63 37 86 34 97 -10z
m239 -281 c25 -79 26 -209 4 -294 -46 -175 -179 -324 -345 -387 -55 -21 -184
-43 -204 -36 -8 3 21 39 73 94 154 159 288 385 355 597 19 61 38 124 41 141
l7 30 24 -40 c13 -22 33 -69 45 -105z"/>
<path d="M1925 4069 c-223 -42 -436 -181 -533 -348 l-27 -46 -55 7 c-161 23
-360 -42 -489 -159 -124 -112 -182 -238 -183 -395 l0 -88 -137 0 c-122 0 -141
-3 -187 -24 -221 -103 -199 -454 33 -522 l58 -18 0 -225 c0 -211 2 -234 27
-338 118 -495 481 -921 1005 -1180 l131 -65 -25 -55 c-22 -49 -25 -65 -21
-141 4 -68 10 -98 30 -137 33 -63 99 -128 158 -154 44 -20 62 -21 850 -21 788
0 806 1 850 21 63 28 127 94 161 164 39 81 41 194 5 271 l-24 52 112 54 c453
222 800 575 955 973 82 208 106 355 99 605 l-5 178 36 7 c76 14 149 71 186
145 26 51 31 165 11 227 -22 67 -78 130 -140 159 -50 23 -58 24 -327 24 -275
0 -276 0 -297 -23 -30 -32 -29 -87 1 -115 21 -20 34 -21 277 -24 224 -3 258
-5 281 -21 65 -44 65 -150 0 -194 -23 -16 -64 -19 -403 -23 -362 -5 -378 -6
-392 -25 -22 -29 -20 -87 4 -113 20 -22 26 -22 300 -22 l280 0 7 -27 c5 -16 8
-113 8 -218 -1 -204 -12 -277 -71 -439 -214 -594 -840 -1032 -1619 -1131 -139
-18 -423 -21 -551 -5 -815 98 -1446 535 -1662 1150 -57 163 -67 228 -67 430 0
102 3 197 8 213 l7 27 1039 0 1038 0 19 21 c25 27 25 91 0 118 -19 21 -22 21
-1145 23 -1031 3 -1129 4 -1157 20 -72 40 -72 156 0 196 28 16 139 17 1324 22
1266 5 1294 5 1308 24 21 29 18 92 -6 116 -20 20 -33 20 -1109 20 l-1088 0 -6
48 c-7 62 6 129 39 193 77 153 296 262 460 229 104 -21 113 -22 139 -16 18 5
33 23 54 64 113 224 327 351 592 352 168 0 312 -56 432 -170 84 -78 118 -85
183 -34 102 81 233 124 374 124 106 0 188 -18 278 -62 80 -39 117 -40 149 -4
48 56 24 110 -67 156 -113 57 -199 75 -360 75 -167 -1 -227 -13 -358 -76 -45
-22 -88 -37 -95 -33 -6 4 -30 22 -52 39 -87 68 -198 117 -323 141 -81 15 -249
17 -327 3z m-81 -3495 c253 -73 468 -98 781 -91 258 6 370 20 580 74 77 19
149 36 159 37 31 2 66 -58 66 -114 0 -56 -29 -104 -80 -134 -34 -21 -46 -21
-790 -21 -744 0 -756 0 -790 21 -88 51 -108 162 -42 237 19 21 11 22 116 -9z"/>
</g>
</svg>
