<?xml version="1.0" standalone="no"?>
<!DOCTYPE svg PUBLIC "-//W3C//DTD SVG 20010904//EN"
 "http://www.w3.org/TR/2001/REC-SVG-20010904/DTD/svg10.dtd">
<svg version="1.0" xmlns="http://www.w3.org/2000/svg"
 width="512.000000pt" height="512.000000pt" viewBox="0 0 512.000000 512.000000"
 preserveAspectRatio="xMidYMid meet">
<metadata>
Created by potrace 1.16, written by Peter Selinger 2001-2019
</metadata>
<g transform="translate(0.000000,512.000000) scale(0.100000,-0.100000)"
fill="#000000" stroke="none">
<path d="M2117 5029 c-45 -11 -130 -53 -175 -87 -52 -40 -111 -130 -134 -205
-17 -56 -20 -86 -16 -159 5 -76 11 -100 42 -162 21 -44 53 -90 81 -115 l45
-41 0 -1054 0 -1054 28 -53 c31 -60 93 -113 150 -129 56 -15 2502 -14 2554 2
50 15 122 78 151 132 l22 41 3 1056 2 1056 45 46 c231 241 120 638 -200 722
-52 13 -216 15 -1310 14 -687 -1 -1267 -5 -1288 -10z m2543 -354 c55 -50 44
-105 -35 -164 -32 -25 -61 -57 -74 -84 -21 -43 -21 -46 -21 -1033 0 -654 -4
-1002 -11 -1026 -20 -73 53 -69 -1118 -66 l-1050 3 -23 23 -23 23 -5 1022 c-4
826 -8 1027 -18 1047 -8 14 -45 55 -83 91 -72 68 -83 95 -58 140 26 50 -10 48
1285 46 1196 -2 1212 -2 1234 -22z"/>
<path d="M2544 1620 c-75 -11 -134 -41 -252 -127 -168 -123 -148 -117 -424
-121 l-238 -3 0 -429 0 -429 258 -3 257 -4 265 -96 c625 -226 865 -310 918
-319 105 -20 249 7 338 64 36 22 187 142 713 566 107 86 286 230 400 321 113
91 216 180 228 199 30 45 38 96 24 149 -25 94 -93 146 -191 146 -61 0 -87 -11
-175 -76 -33 -24 -112 -82 -176 -129 -63 -46 -156 -113 -205 -149 -49 -36 -92
-66 -96 -68 -4 -2 -1 12 7 32 18 42 19 68 4 121 -14 50 -72 107 -125 122 -39
12 -1350 227 -1434 236 -25 3 -68 1 -96 -3z m1511 -609 c-9 -7 -178 -129 -386
-278 -33 -24 -71 -43 -84 -43 -16 0 -79 47 -197 146 -95 80 -182 155 -193 165
-19 19 -12 19 425 19 247 0 440 -4 435 -9z"/>
<path d="M123 1528 c-12 -6 -27 -22 -33 -37 -7 -18 -10 -192 -8 -570 l3 -543
24 -19 c22 -18 47 -19 575 -19 l553 0 21 23 22 23 0 553 0 552 -25 24 -24 25
-543 -1 c-359 0 -550 -4 -565 -11z"/>
</g>
</svg>
