<?xml version="1.0" standalone="no"?>
<!DOCTYPE svg PUBLIC "-//W3C//DTD SVG 20010904//EN"
 "http://www.w3.org/TR/2001/REC-SVG-20010904/DTD/svg10.dtd">
<svg version="1.0" xmlns="http://www.w3.org/2000/svg"
 width="512.000000pt" height="512.000000pt" viewBox="0 0 512.000000 512.000000"
 preserveAspectRatio="xMidYMid meet">

<g transform="translate(0.000000,512.000000) scale(0.100000,-0.100000)"
fill="#000000" stroke="none">
<path d="M2380 4945 c-295 -47 -575 -226 -749 -479 -48 -70 -126 -240 -150
-326 -40 -149 -42 -203 -39 -1321 l3 -1075 37 -76 c45 -91 103 -147 196 -191
l67 -32 247 -3 247 -4 3 -521 c3 -519 3 -522 26 -567 35 -72 75 -114 144 -151
58 -31 70 -34 148 -34 78 0 90 3 148 34 70 38 100 69 140 145 l27 51 3 522 3
521 247 4 247 3 67 32 c93 44 151 100 196 191 l37 76 3 1075 c3 1118 1 1172
-39 1321 -24 86 -102 256 -150 326 -176 256 -456 434 -756 479 -118 18 -239
18 -353 0z m343 -160 c372 -65 663 -335 770 -714 20 -73 21 -98 25 -672 l3
-597 -48 -7 c-60 -8 -156 -59 -189 -98 -14 -16 -37 -53 -52 -81 -25 -48 -26
-60 -31 -243 -7 -209 -9 -218 -75 -267 -39 -29 -133 -29 -172 0 -63 47 -69 63
-75 227 -5 149 -6 153 -39 215 -36 69 -79 109 -150 144 -66 32 -196 31 -265
-2 -107 -52 -170 -147 -185 -278 -9 -78 -24 -109 -74 -146 -39 -29 -133 -29
-172 0 -63 47 -69 63 -75 227 -5 138 -8 157 -32 203 -14 28 -37 65 -51 81 -33
39 -129 90 -188 98 l-48 7 0 518 c0 414 3 535 15 603 61 350 311 638 654 752
134 44 306 56 454 30z m-1059 -2079 c18 -8 46 -31 62 -52 28 -36 29 -42 35
-188 5 -126 9 -158 27 -196 34 -71 75 -113 144 -151 58 -31 70 -34 148 -34 78
0 90 3 148 34 103 56 155 136 171 266 10 82 25 112 75 149 39 29 133 29 172 0
63 -47 68 -63 75 -227 5 -127 9 -159 27 -197 34 -71 75 -113 144 -151 58 -31
70 -34 148 -34 78 0 90 3 148 34 70 38 101 70 140 145 25 48 26 60 31 243 5
173 8 194 27 219 28 39 63 63 102 70 l32 7 0 -418 c0 -299 -3 -429 -12 -459
-16 -55 -99 -138 -154 -154 -59 -17 -1529 -17 -1588 0 -55 16 -138 99 -154
154 -9 30 -12 169 -12 498 0 504 -5 471 64 442z m1054 -1775 c-3 -497 -4 -510
-24 -537 -39 -53 -71 -69 -134 -69 -63 0 -95 16 -134 69 -20 27 -21 40 -24
537 l-3 509 161 0 161 0 -3 -509z"/>
<path d="M2287 4591 c-43 -16 -81 -31 -84 -35 -4 -3 9 -38 27 -76 26 -53 38
-69 50 -64 17 7 134 49 137 49 6 0 -36 149 -43 151 -5 2 -44 -10 -87 -25z"/>
<path d="M1978 4389 c-145 -155 -218 -354 -218 -595 l0 -114 80 0 80 0 0 113
c0 61 7 144 15 182 19 91 83 218 147 289 l50 57 -48 52 c-27 29 -52 54 -57 56
-4 1 -27 -17 -49 -40z"/>
</g>
</svg>
