<?xml version="1.0" standalone="no"?>
<!DOCTYPE svg PUBLIC "-//W3C//DTD SVG 20010904//EN"
 "http://www.w3.org/TR/2001/REC-SVG-20010904/DTD/svg10.dtd">
<svg version="1.0" xmlns="http://www.w3.org/2000/svg"
 width="512.000000pt" height="512.000000pt" viewBox="0 0 512.000000 512.000000"
 preserveAspectRatio="xMidYMid meet">
<metadata>
Created by potrace 1.16, written by Peter Selinger 2001-2019
</metadata>
<g transform="translate(0.000000,512.000000) scale(0.100000,-0.100000)"
fill="#000000" stroke="none">
<path d="M965 4939 c-274 -88 -434 -144 -442 -155 -20 -27 -16 -51 23 -131 61
-127 189 -232 328 -269 70 -19 210 -18 277 2 172 51 304 184 354 356 28 97 18
282 -17 326 -22 26 -106 5 -523 -129z m427 -34 c8 -40 -11 -134 -39 -191 -34
-69 -103 -138 -178 -177 -48 -24 -76 -31 -141 -35 -100 -5 -169 13 -244 65
-49 34 -120 113 -120 132 0 4 18 13 40 20 l41 12 45 -46 c64 -66 121 -90 214
-89 94 1 152 27 213 94 45 50 77 127 77 185 0 27 5 34 33 43 49 15 54 14 59
-13z m-234 -75 c-23 -67 -106 -118 -171 -106 -18 3 -48 16 -67 28 l-35 22 130
42 c161 52 157 52 143 14z"/>
<path d="M3322 4930 c-152 -32 -260 -166 -270 -336 -4 -67 -1 -87 16 -121 24
-45 66 -84 123 -114 22 -11 39 -22 39 -25 0 -3 -14 -25 -31 -50 -96 -140 -80
-257 42 -318 67 -33 129 -34 189 -3 60 30 89 88 97 191 l6 76 41 -8 c154 -27
248 19 306 151 83 190 13 384 -176 484 -120 63 -281 94 -382 73z m173 -135
c186 -49 288 -140 288 -259 0 -53 -29 -134 -60 -168 -28 -31 -73 -32 -157 -4
-137 46 -150 36 -161 -120 -9 -135 -23 -174 -62 -174 -39 0 -73 26 -73 55 0
13 32 72 72 130 64 94 71 109 62 133 -10 28 -20 34 -119 77 -86 37 -105 58
-105 114 0 94 70 191 157 218 53 16 89 16 158 -2z"/>
<path d="M4475 4802 c-126 -47 -207 -118 -262 -230 -35 -69 -38 -83 -41 -176
-6 -152 28 -240 130 -344 99 -100 249 -148 387 -123 188 34 329 169 367 353
43 206 -61 410 -254 501 -60 28 -78 32 -172 34 -83 3 -115 -1 -155 -15z m275
-139 c25 -13 65 -42 88 -64 101 -101 125 -237 64 -361 -100 -204 -358 -246
-516 -83 -79 81 -108 216 -70 328 22 66 96 144 169 179 53 26 69 29 140 26 58
-2 93 -9 125 -25z"/>
<path d="M4553 4549 c-94 -28 -147 -151 -108 -246 33 -79 97 -117 186 -111
221 16 224 343 3 363 -27 2 -64 0 -81 -6z"/>
<path d="M2331 4288 c-133 -51 -214 -209 -180 -348 13 -51 17 -56 54 -68 73
-24 188 3 259 62 60 49 98 124 104 205 6 86 -10 144 -43 159 -40 18 -134 13
-194 -10z m106 -148 c-9 -69 -64 -126 -139 -144 -23 -5 -28 -3 -28 11 1 29 27
93 47 115 22 25 82 57 107 58 16 0 18 -5 13 -40z"/>
<path d="M1382 4109 c-132 -23 -285 -106 -352 -191 -98 -123 -98 -306 1 -443
50 -69 90 -90 174 -90 39 0 86 3 106 8 l36 7 12 -75 c16 -100 46 -153 101
-182 123 -65 290 26 290 160 0 59 -19 105 -70 173 l-38 51 33 16 c49 23 104
75 127 120 30 60 22 164 -21 251 -74 152 -226 225 -399 195z m186 -150 c63
-31 122 -127 122 -199 0 -44 -38 -80 -126 -121 -119 -55 -121 -71 -24 -200 86
-113 93 -134 56 -166 -43 -36 -77 -29 -95 20 -6 16 -16 72 -22 125 -12 108
-20 129 -55 142 -18 7 -41 3 -98 -20 -127 -51 -172 -37 -218 67 -59 134 1 252
167 329 124 57 208 63 293 23z"/>
<path d="M299 3988 c-41 -14 -74 -95 -74 -182 1 -88 15 -132 65 -195 62 -78
201 -132 259 -101 62 33 87 207 42 305 -26 59 -70 107 -128 141 -48 29 -128
44 -164 32z m142 -185 c33 -35 53 -94 44 -133 -8 -35 -7 -35 -45 -15 -58 30
-97 109 -86 171 7 33 7 34 34 20 15 -8 39 -27 53 -43z"/>
<path d="M4012 3848 c-52 -67 -182 -192 -288 -278 l-120 -98 -65 16 c-88 22
-317 21 -424 -2 -80 -17 -166 -42 -261 -78 -70 -25 -80 -49 -65 -161 54 -407
304 -691 699 -794 173 -45 276 -29 473 73 338 175 461 501 348 929 -33 129
-124 313 -190 385 -35 37 -81 41 -107 8z m-57 -355 c-25 -138 -70 -306 -120
-452 -46 -136 -140 -353 -174 -405 l-19 -28 -40 68 c-81 141 -114 280 -92 390
29 142 110 249 316 415 68 54 126 104 130 111 16 25 15 -12 -1 -99z m216 -37
c26 -80 49 -214 49 -287 l0 -58 -62 -35 c-69 -38 -188 -89 -194 -84 -2 2 8 37
22 78 34 103 80 286 99 405 10 55 19 107 22 115 6 17 32 -39 64 -134z m-686
-92 c9 -4 3 -21 -21 -62 -36 -59 -74 -151 -74 -180 -1 -14 -2 -15 -9 -2 -7 13
-51 232 -51 255 0 7 130 -2 155 -11z m-260 -172 c-5 -5 -209 116 -212 125 -2
5 34 18 79 27 46 10 88 19 93 21 9 2 48 -165 40 -173z m-145 -74 c75 -42 170
-93 212 -113 l77 -37 6 -46 c10 -78 45 -183 85 -259 20 -40 32 -73 26 -73 -6
0 -47 15 -91 33 -219 89 -372 259 -444 491 -23 73 -25 90 -13 84 4 -1 68 -38
142 -80z m1075 -237 c-40 -73 -107 -144 -184 -196 -62 -40 -181 -101 -181 -91
0 2 17 39 39 82 21 44 46 95 54 115 13 33 23 39 84 59 37 13 97 36 133 51 36
16 69 28 73 29 5 0 -4 -22 -18 -49z"/>
<path d="M4673 3619 c-94 -28 -147 -151 -108 -246 33 -79 97 -117 186 -111
221 16 224 343 3 363 -27 2 -64 0 -81 -6z"/>
<path d="M2122 3379 c-111 -55 -133 -204 -44 -293 79 -80 209 -71 278 20 26
33 29 46 29 109 0 63 -3 76 -29 109 -55 72 -153 95 -234 55z"/>
<path d="M390 3134 c-215 -57 -360 -285 -322 -505 16 -94 52 -168 117 -237
215 -232 596 -172 733 115 36 76 37 81 37 193 0 112 -1 117 -36 190 -96 200
-315 301 -529 244z m272 -156 c187 -102 226 -346 80 -496 -72 -73 -129 -97
-232 -97 -73 0 -92 4 -135 27 -65 34 -128 100 -157 163 -31 67 -31 180 -1 247
79 176 280 246 445 156z"/>
<path d="M416 2856 c-55 -33 -86 -88 -86 -154 0 -124 97 -204 220 -182 169 31
200 271 46 344 -51 24 -133 21 -180 -8z"/>
<path d="M1413 2892 c-105 -38 -177 -109 -203 -202 -38 -134 16 -304 133 -418
l44 -43 -24 -46 c-15 -30 -23 -64 -23 -95 l0 -48 -597 0 c-582 0 -599 -1 -631
-20 -53 -32 -65 -76 -57 -200 45 -711 347 -1176 880 -1354 97 -33 284 -66 370
-66 l62 0 7 -38 c17 -108 117 -232 234 -289 l57 -28 895 0 895 0 58 27 c111
52 216 183 233 290 l7 38 62 0 c35 0 114 9 177 20 191 33 341 90 482 184 355
236 555 649 591 1216 8 124 -4 168 -57 200 -33 20 -48 20 -1068 20 l-1036 0
-18 71 c-49 191 -163 305 -314 314 l-54 3 -22 54 c-47 115 -113 185 -226 241
-57 28 -74 32 -150 32 -66 0 -94 -5 -126 -21 l-41 -20 -63 59 c-40 38 -91 73
-139 96 -70 33 -84 36 -181 39 -82 2 -116 -2 -157 -16z m264 -133 c56 -22 118
-76 209 -182 37 -44 65 -47 101 -11 72 72 135 81 231 34 92 -47 162 -141 178
-241 8 -45 34 -79 62 -79 9 0 35 5 56 11 108 30 195 -50 250 -228 l7 -23 -197
0 -197 0 -96 52 c-178 95 -373 222 -500 325 -77 63 -102 71 -136 49 -18 -12
-25 -25 -25 -49 0 -17 4 -37 8 -42 27 -39 229 -187 375 -275 48 -29 87 -55 87
-57 0 -1 -139 -3 -310 -3 l-310 0 0 30 c0 38 20 77 54 109 34 32 36 84 4 109
-13 9 -53 46 -89 82 -74 73 -109 146 -109 226 0 79 53 152 128 174 54 16 159
11 219 -11z m3259 -926 c-4 -43 -9 -97 -12 -120 l-5 -43 -291 0 c-325 0 -328
-1 -328 -66 0 -62 11 -64 322 -64 l278 0 -6 -27 c-33 -151 -96 -321 -162 -438
-182 -323 -488 -508 -899 -544 -160 -14 -2386 -14 -2546 0 -302 26 -540 129
-723 313 -165 166 -274 381 -338 669 l-6 27 1850 0 1851 0 24 25 c30 29 32 58
5 85 -20 20 -33 20 -1884 20 l-1865 0 -5 43 c-3 23 -8 77 -12 120 l-6 77 2382
0 2382 0 -6 -77z m-1316 -1448 c0 -22 -56 -108 -92 -141 -90 -83 -36 -79 -973
-79 l-830 0 -52 24 c-59 26 -134 101 -157 156 -9 21 -16 39 -16 41 0 2 477 4
1060 4 583 0 1060 -2 1060 -5z"/>
<path d="M4644 2866 c-69 -30 -132 -173 -119 -270 13 -102 75 -194 157 -237
55 -28 89 -25 125 14 61 63 78 111 78 217 0 112 -16 151 -88 218 -35 31 -108
75 -121 72 0 -1 -15 -7 -32 -14z m91 -191 c28 -46 33 -116 13 -160 -14 -32
-21 -31 -53 3 -45 48 -53 110 -24 184 14 35 33 27 64 -27z"/>
<path d="M4786 718 c-22 -31 -20 -64 4 -88 16 -16 33 -20 95 -20 84 0 115 18
115 65 0 48 -31 65 -119 65 -71 0 -82 -2 -95 -22z"/>
<path d="M4700 514 c-8 -8 -13 -29 -13 -45 0 -43 89 -132 132 -132 42 0 61 19
61 62 0 31 -8 45 -48 84 -39 38 -54 47 -84 47 -20 0 -41 -7 -48 -16z"/>
<path d="M4486 418 c-11 -15 -16 -45 -16 -91 0 -59 3 -71 26 -93 19 -20 31
-24 52 -19 42 10 52 31 52 115 0 62 -4 80 -18 93 -27 25 -78 22 -96 -5z"/>
</g>
</svg>
