<?xml version="1.0" standalone="no"?>
<!DOCTYPE svg PUBLIC "-//W3C//DTD SVG 20010904//EN"
 "http://www.w3.org/TR/2001/REC-SVG-20010904/DTD/svg10.dtd">
<svg version="1.0" xmlns="http://www.w3.org/2000/svg"
 width="512.000000pt" height="512.000000pt" viewBox="0 0 512.000000 512.000000"
 preserveAspectRatio="xMidYMid meet">
<metadata>
Created by potrace 1.16, written by Peter Selinger 2001-2019
</metadata>
<g transform="translate(0.000000,512.000000) scale(0.100000,-0.100000)"
fill="#000000" stroke="none">
<path d="M500 4502 l-495 -287 -3 -597 -2 -596 147 -85 148 -84 5 -266 c3
-146 7 -267 10 -270 3 -2 38 -23 77 -46 40 -23 73 -43 73 -45 0 -2 -44 -29
-99 -60 -54 -30 -103 -62 -110 -69 -8 -11 -10 -170 -9 -602 l3 -588 499 -288
c275 -159 507 -289 516 -289 9 0 241 130 516 288 l499 288 3 588 c1 436 -1
592 -9 603 -7 7 -41 30 -76 49 -34 20 -63 39 -63 44 0 4 45 33 100 64 55 32
104 66 110 76 6 12 10 225 10 589 0 531 -1 572 -18 589 -9 9 -79 52 -155 95
l-137 78 0 257 c0 141 -4 262 -8 268 -12 20 -986 578 -1012 581 -18 1 -172
-83 -520 -285z m653 112 c73 -41 135 -79 139 -82 4 -4 -191 -121 -433 -261
l-440 -254 -42 24 c-23 13 -86 49 -139 79 -54 30 -98 57 -98 60 0 5 869 510
878 510 1 0 62 -34 135 -76z m313 -180 c35 -20 66 -39 68 -42 2 -4 -199 -124
-447 -267 -247 -143 -456 -266 -464 -273 -9 -10 -13 -45 -13 -127 l0 -113 -75
41 -75 42 0 120 0 120 463 267 c254 147 466 267 470 267 5 1 38 -15 73 -35z
m308 -178 l128 -74 -73 -43 c-41 -23 -240 -139 -443 -255 l-369 -213 -46 27
c-25 14 -85 49 -132 77 l-87 50 437 252 c240 139 441 253 446 253 6 0 68 -33
139 -74z m-1545 -237 l140 -80 3 -147 3 -147 47 -31 c26 -17 90 -54 142 -83
80 -44 98 -51 115 -41 19 10 21 20 21 130 0 66 3 120 8 120 4 0 63 -33 132
-73 l125 -73 3 -513 2 -513 -22 14 c-13 8 -213 124 -445 258 l-423 243 0 509
c0 279 2 508 4 508 2 0 67 -36 145 -81z m1714 -940 c-8 -8 -806 -470 -855
-495 l-28 -15 0 510 0 509 443 256 442 255 3 -506 c1 -279 -1 -510 -5 -514z
m186 446 c39 -22 71 -43 71 -46 0 -4 -36 -27 -80 -52 l-80 -46 0 96 c0 52 4
93 9 91 5 -1 41 -21 80 -43z m123 -1147 c-9 -9 -872 -508 -878 -508 -2 0 -4
173 -4 384 l0 384 313 180 c171 99 322 188 335 197 21 15 22 23 22 138 l0 122
108 61 107 61 3 -505 c1 -278 -1 -509 -6 -514z m-1537 232 c270 -156 300 -171
322 -161 13 6 71 38 128 71 57 33 106 60 109 60 4 0 6 -160 6 -356 0 -227 -4
-354 -10 -352 -5 2 -205 116 -444 253 l-435 250 -1 209 c0 176 2 207 14 203 8
-3 148 -83 311 -177z m-19 -516 c74 -42 136 -79 138 -83 2 -3 -35 -29 -84 -58
l-88 -51 -141 81 c-77 45 -137 85 -133 88 8 8 165 99 171 99 2 0 63 -34 137
-76z m1423 -14 c21 -14 5 -25 -410 -265 -238 -137 -436 -252 -441 -253 -9 -4
-267 139 -268 148 0 7 165 100 178 100 6 0 38 -16 71 -35 32 -19 66 -35 74
-35 8 0 170 89 359 199 l343 198 36 -21 c20 -12 46 -28 58 -36z m-1639 -179
l135 -79 3 -143 c1 -78 7 -148 13 -155 15 -19 254 -154 272 -154 38 0 47 27
47 145 l0 114 135 -77 134 -77 1 -512 0 -512 -182 106 c-101 58 -301 173 -445
256 l-263 152 0 507 c0 280 3 508 8 507 4 0 68 -35 142 -78z m1710 -429 l0
-508 -432 -249 c-237 -138 -435 -251 -440 -253 -4 -2 -8 226 -8 506 l0 510
433 250 c237 138 435 251 440 251 4 1 7 -228 7 -507z m-1184 443 c35 -20 65
-39 68 -43 2 -4 -44 -35 -102 -68 l-107 -61 -3 -122 c-1 -66 -6 -121 -10 -121
-4 0 -36 17 -72 38 l-65 38 -3 125 -2 124 107 62 c60 34 112 62 117 62 5 1 37
-15 72 -34z"/>
<path d="M3809 4530 c-71 -13 -159 -92 -159 -142 0 -16 -11 -18 -108 -18 -120
0 -132 -5 -132 -57 l0 -32 -342 -3 c-324 -3 -345 -4 -383 -24 -63 -32 -102
-98 -110 -186 -3 -40 -5 -719 -3 -1508 l3 -1435 28 -47 c18 -31 44 -57 75 -75
l47 -28 1126 0 1126 0 48 30 c32 20 56 45 72 74 l23 44 0 1507 0 1508 -32 48
c-61 88 -62 89 -455 92 l-343 3 0 32 c0 52 -12 57 -132 57 -98 0 -108 2 -108
18 0 11 -13 38 -30 60 -47 65 -129 97 -211 82z m120 -120 c17 -18 33 -46 37
-68 11 -60 16 -62 130 -62 l104 0 0 -145 0 -145 -350 0 -350 0 0 145 0 145
104 0 c115 0 119 2 130 64 11 59 55 96 116 96 41 0 53 -5 79 -30z m-519 -275
l0 -55 -311 0 c-195 0 -318 -4 -330 -10 -19 -11 -19 -37 -19 -1445 0 -1408 0
-1434 19 -1445 27 -14 2135 -14 2162 0 19 11 19 37 19 1445 0 1408 0 1434 -19
1445 -12 6 -135 10 -330 10 l-311 0 0 55 0 55 321 0 c355 0 368 -2 404 -63 20
-31 20 -63 23 -1457 2 -784 0 -1449 -3 -1479 -5 -41 -14 -61 -40 -90 l-33 -36
-1111 0 -1110 0 -31 30 c-16 16 -35 46 -40 66 -7 24 -9 546 -8 1486 3 1415 3
1449 22 1480 37 61 47 63 404 63 l322 0 0 -55z m0 -178 c0 -18 5 -38 12 -45
17 -17 839 -17 856 0 7 7 12 27 12 45 l0 33 285 0 285 0 0 -1365 0 -1365
-1010 0 -1010 0 0 1365 0 1365 285 0 285 0 0 -33z"/>
<path d="M3042 3628 c-8 -8 -12 -59 -12 -164 0 -125 3 -155 16 -168 13 -13 42
-16 164 -16 122 0 151 3 164 16 13 13 16 43 16 168 0 105 -4 156 -12 164 -8 8
-60 12 -168 12 -108 0 -160 -4 -168 -12z m258 -168 l0 -90 -90 0 -90 0 0 90 0
90 90 0 90 0 0 -90z"/>
<path d="M3546 3494 c-19 -18 -20 -28 -6 -55 10 -18 27 -19 568 -19 421 0 561
3 570 12 18 18 14 56 -7 68 -13 6 -208 10 -565 10 -482 0 -546 -2 -560 -16z"/>
<path d="M3016 2874 c-13 -13 -16 -42 -16 -164 0 -122 3 -151 16 -164 13 -13
43 -16 168 -16 105 0 156 4 164 12 17 17 17 319 0 336 -8 8 -59 12 -164 12
-125 0 -155 -3 -168 -16z m254 -164 l0 -90 -90 0 -90 0 0 90 0 90 90 0 90 0 0
-90z"/>
<path d="M3517 2743 c-4 -3 -7 -19 -7 -35 0 -21 6 -31 26 -38 35 -14 1064 -13
1099 0 22 8 26 15 23 42 l-3 33 -566 3 c-311 1 -569 -1 -572 -5z"/>
<path d="M3010 2031 c-5 -11 -10 -84 -10 -165 0 -118 3 -147 16 -160 13 -13
42 -16 160 -16 81 0 154 5 165 10 18 10 19 23 19 168 0 110 -4 162 -12 170 -8
8 -60 12 -170 12 -145 0 -158 -1 -168 -19z m260 -161 l0 -90 -90 0 -90 0 0 90
0 90 90 0 90 0 0 -90z"/>
<path d="M3521 1906 c-7 -8 -11 -27 -9 -43 l3 -28 564 -3 c445 -2 566 0 573
10 14 23 8 57 -11 68 -13 6 -208 10 -564 10 -462 0 -546 -2 -556 -14z"/>
</g>
</svg>
