<?xml version="1.0" standalone="no"?>
<!DOCTYPE svg PUBLIC "-//W3C//DTD SVG 20010904//EN"
 "http://www.w3.org/TR/2001/REC-SVG-20010904/DTD/svg10.dtd">
<svg version="1.0" xmlns="http://www.w3.org/2000/svg"
 width="512.000000pt" height="512.000000pt" viewBox="0 0 512.000000 512.000000"
 preserveAspectRatio="xMidYMid meet">
<metadata>
Created by potrace 1.16, written by Peter Selinger 2001-2019
</metadata>
<g transform="translate(0.000000,512.000000) scale(0.100000,-0.100000)"
fill="#000000" stroke="none">
<path d="M1528 4963 c-25 -4 -26 -5 -22 -66 6 -80 23 -251 31 -302 6 -40 6
-40 -57 45 -35 47 -90 117 -123 157 l-59 72 -34 -27 c-19 -15 -34 -29 -34 -32
0 -3 37 -50 81 -105 76 -95 199 -267 199 -279 0 -3 -28 -3 -62 0 -51 5 -105
-3 -278 -39 -120 -26 -219 -42 -224 -37 -5 5 -7 103 -4 219 5 206 4 210 -16
215 -56 15 -63 10 -70 -55 -3 -34 -6 -130 -6 -213 l0 -151 -48 85 c-57 101
-152 250 -159 250 -8 0 -73 -41 -73 -45 0 -2 31 -53 69 -114 69 -108 171 -291
171 -305 0 -4 -4 -5 -9 -1 -6 3 -34 10 -63 15 -72 13 -555 -30 -569 -51 -27
-39 21 -175 85 -247 42 -46 36 -52 -44 -52 -57 0 -63 -7 -54 -55 6 -34 7 -35
54 -35 45 0 49 -2 55 -30 8 -37 76 -143 105 -163 25 -17 27 -17 -122 -32 -56
-6 -58 -8 -58 -35 0 -56 5 -59 83 -53 l72 6 25 -59 c48 -118 165 -206 291
-219 29 -3 142 3 249 13 107 11 196 18 197 18 1 -1 7 -51 13 -111 7 -61 13
-111 15 -113 1 -1 21 0 45 4 l42 7 -6 61 c-4 34 -9 84 -12 111 l-6 50 120 68
c99 55 128 67 165 67 25 0 132 18 238 40 142 30 194 37 200 29 10 -18 46 -195
69 -349 12 -74 23 -136 25 -138 8 -8 85 10 85 21 0 22 -61 374 -75 432 -11 46
-11 63 -2 72 19 19 330 243 333 240 2 -2 -5 -45 -16 -97 -38 -191 -52 -335
-59 -608 l-6 -272 -57 40 c-32 23 -159 84 -295 142 l-238 102 -95 4 c-89 3
-110 0 -340 -58 -145 -36 -270 -72 -305 -90 -90 -44 -372 -274 -417 -341 -20
-30 -65 -125 -100 -212 -61 -154 -63 -159 -100 -174 -49 -20 -81 -58 -108
-130 -19 -49 -21 -73 -18 -158 5 -117 30 -182 103 -262 l43 -49 -19 -70 c-49
-172 -62 -410 -34 -594 17 -112 52 -237 100 -356 l34 -86 -24 -49 c-31 -59
-32 -122 -5 -166 41 -68 -80 -63 1598 -63 l1519 0 28 22 c29 23 85 130 85 163
0 12 -9 38 -20 60 -11 21 -19 39 -17 40 87 48 189 141 221 203 22 42 27 40 14
-6 -6 -20 -8 -82 -6 -137 6 -120 35 -201 103 -288 61 -77 88 -78 146 -4 82
103 114 210 107 356 -5 90 -4 94 10 71 9 -14 45 -54 81 -91 103 -102 228 -154
353 -147 l53 3 3 53 c7 125 -45 250 -147 353 -37 36 -77 72 -91 81 -23 14 -19
15 71 10 146 -7 253 25 357 107 72 57 72 85 0 142 -93 74 -196 109 -318 109
-41 0 -92 -4 -112 -9 -21 -5 -38 -8 -38 -6 0 2 20 15 43 29 24 14 69 52 99 85
94 101 143 225 136 343 l-3 53 -53 3 c-125 7 -250 -45 -353 -147 -36 -37 -72
-77 -81 -91 -14 -23 -15 -19 -10 71 7 146 -25 253 -107 357 -54 68 -84 70
-136 10 -42 -50 -89 -144 -104 -208 -13 -56 -14 -195 -2 -238 5 -17 8 -32 6
-32 -2 0 -14 19 -28 43 -33 56 -120 137 -190 177 l-57 32 0 206 c-1 154 -5
217 -15 247 -8 22 -15 43 -15 47 0 4 222 9 493 10 l492 3 3 710 2 710 -165
165 -165 165 25 77 c14 43 32 116 41 163 l17 85 64 0 63 0 0 40 0 40 -60 0
-60 0 0 80 0 80 189 0 189 0 -26 -80 -26 -80 -63 0 -63 0 0 -40 0 -39 62 -3
62 -3 63 -265 c137 -582 164 -759 164 -1110 0 -301 -16 -432 -105 -875 -24
-121 -43 -222 -41 -223 6 -6 79 -21 83 -17 5 5 40 174 87 421 48 255 66 441
66 696 0 360 -22 516 -147 1048 l-86 365 37 112 c20 62 35 125 33 140 l-3 28
-246 5 -246 5 -35 45 c-18 24 -56 58 -83 75 -45 28 -55 30 -145 30 -90 0 -100
-2 -145 -30 -27 -17 -65 -51 -83 -75 l-35 -45 -646 -5 -646 -5 -3 -28 c-2 -15
13 -77 33 -138 l37 -110 -17 -77 c-10 -42 -19 -81 -22 -85 -2 -4 -14 4 -25 19
-15 19 -28 25 -47 22 -26 -4 -26 -4 -26 67 0 45 -7 88 -19 119 l-19 50 31 24
31 24 -22 34 c-12 18 -26 34 -31 34 -5 0 -31 -16 -57 -35 l-49 -35 0 75 c0 49
-6 92 -19 124 l-19 50 59 41 c33 23 59 44 59 47 0 4 -28 47 -46 72 -2 2 -128
-87 -281 -198 -172 -124 -291 -217 -311 -242 -21 -28 -33 -37 -36 -28 -10 27
-36 225 -41 314 -11 165 -7 159 -77 148z m621 -328 c1 -72 -30 -144 -80 -191
-36 -33 -294 -223 -313 -230 -15 -6 -56 78 -56 113 0 96 55 160 270 314 l155
111 12 -29 c7 -15 12 -55 12 -88z m1957 83 l49 -33 -77 -3 c-43 -2 -113 -2
-155 0 l-78 3 49 33 c41 26 60 32 106 32 46 0 65 -6 106 -32z m-386 -209 c0
-116 23 -264 60 -382 l29 -92 -164 -165 -165 -165 0 -680 0 -680 -130 130
c-145 144 -174 191 -185 292 l-7 62 41 39 41 39 0 132 0 133 -34 34 -34 34
-212 0 -212 0 -34 -34 -34 -34 0 -133 0 -132 41 -39 41 -39 -7 -62 c-10 -87
-35 -139 -105 -211 l-61 -64 -67 67 c-37 37 -85 81 -107 98 l-40 31 0 294 c0
395 16 508 158 1108 l63 265 102 3 102 3 0 39 0 40 -103 0 -103 0 -26 80 -26
80 589 0 589 0 0 -91z m470 2 c0 -99 -20 -232 -51 -335 l-20 -69 -48 47 c-30
29 -56 46 -71 46 -15 0 -41 -17 -71 -46 l-48 -47 -20 69 c-31 103 -51 236 -51
335 l0 89 190 0 190 0 0 -89z m-1910 -111 c14 -60 6 -118 -25 -180 -29 -57
-48 -74 -228 -203 -141 -102 -148 -106 -156 -84 -5 12 -16 41 -26 63 -13 34
-14 50 -6 81 22 82 59 120 241 253 96 70 178 126 181 124 4 -2 12 -26 19 -54z
m-749 -90 c24 -12 55 -32 67 -44 22 -20 67 -95 60 -100 -7 -6 -415 -86 -434
-86 -48 0 -124 32 -168 71 -41 36 -84 96 -74 103 2 2 93 21 203 44 221 46 274
48 346 12z m-756 -165 c52 -22 115 -84 137 -134 10 -24 17 -45 16 -46 -2 -1
-101 -10 -220 -20 -241 -21 -266 -18 -343 35 -60 42 -127 149 -93 151 7 0 94
9 193 19 191 20 252 18 310 -5z m1636 -27 c16 -62 5 -140 -29 -201 -25 -45
-54 -70 -210 -184 l-180 -131 -14 31 c-7 18 -12 59 -12 92 1 68 33 142 81 186
38 35 333 249 344 249 4 0 13 -19 20 -42z m1811 -245 l218 -218 0 -647 0 -648
-440 0 -440 0 0 648 0 647 144 144 144 144 32 -64 c18 -35 44 -83 57 -107 l25
-42 37 22 c20 12 38 23 40 24 2 2 -17 38 -42 81 -25 43 -53 95 -62 117 l-16
39 37 38 c21 22 40 39 43 39 3 0 104 -98 223 -217z m-2591 152 c23 -9 58 -27
76 -41 36 -28 90 -101 80 -110 -11 -12 -382 -84 -430 -84 -27 0 -68 5 -89 12
-44 13 -123 79 -150 125 l-17 30 192 40 c212 45 274 50 338 28z m-758 -193
c24 -11 59 -35 79 -54 39 -40 74 -106 61 -118 -13 -11 -410 -43 -451 -35 -51
9 -91 31 -135 74 -38 36 -83 108 -73 118 9 9 370 42 423 38 28 -2 71 -12 96
-23z m895 -108 c61 -25 106 -69 118 -113 11 -38 10 -42 -10 -46 -115 -27 -372
-75 -398 -75 -83 0 -172 49 -220 121 -27 40 -28 44 -11 51 10 5 106 26 213 48
201 40 240 42 308 14z m-848 -184 c91 -25 170 -102 170 -166 l0 -30 -207 -17
c-243 -21 -278 -15 -355 53 -43 38 -94 118 -82 129 6 6 320 38 394 40 25 0 61
-4 80 -9z m2220 -400 c17 -17 20 -33 20 -100 0 -120 0 -120 -200 -120 -200 0
-200 0 -200 120 0 120 0 120 200 120 147 0 162 -2 180 -20z m-1260 -269 c118
-51 230 -101 247 -111 56 -32 330 -258 357 -293 14 -19 26 -37 26 -42 0 -4
-23 -33 -52 -64 -54 -58 -82 -111 -93 -173 l-7 -36 -116 -7 c-132 -9 -254 -2
-452 22 -177 23 -472 22 -635 0 -151 -21 -396 -22 -552 -1 -65 8 -123 17 -130
19 -17 6 97 284 139 340 39 52 325 282 384 308 22 10 144 45 270 77 207 54
237 59 314 56 82 -3 92 -6 300 -95z m1202 -118 c7 -130 25 -160 199 -338 80
-82 154 -165 163 -182 l17 -33 -501 0 -501 0 17 33 c9 17 83 100 164 182 174
179 192 209 198 337 l4 88 118 0 118 0 4 -87z m396 -798 l2 -160 -77 0 -78 0
1 -85 c0 -72 5 -96 31 -157 l31 -73 -474 0 -474 0 0 313 c0 173 3 317 7 320 3
4 236 6 517 5 l511 -3 3 -160z m-2914 125 c188 -25 435 -27 601 -3 170 24 449
23 635 -2 106 -14 201 -20 353 -19 l207 0 0 -184 0 -183 -47 7 c-87 14 -364 7
-513 -11 -195 -25 -450 -25 -650 -1 -190 23 -411 18 -604 -14 l-129 -21 -33
32 c-17 17 -44 54 -60 82 -52 96 -41 280 19 322 27 19 42 19 221 -5z m3486
-235 c33 -64 35 -73 35 -169 0 -74 -5 -114 -18 -148 l-19 -48 -48 0 c-47 0
-48 1 -65 43 -23 54 -31 181 -16 244 15 60 68 156 84 150 7 -2 28 -34 47 -72z
m-505 -174 c97 -46 181 -131 220 -225 14 -32 13 -34 -23 -70 l-38 -36 -54 27
c-110 54 -215 191 -236 307 l-7 39 39 -7 c22 -4 66 -20 99 -35z m1041 2 c-10
-56 -59 -152 -101 -201 -40 -46 -107 -95 -159 -117 -32 -14 -34 -13 -70 23
l-36 38 27 54 c49 100 157 191 268 226 70 22 78 19 71 -23z m-2263 -70 l37 -6
0 -544 0 -545 -30 -34 c-40 -46 -47 -91 -21 -148 l20 -46 -902 0 c-705 0 -907
3 -927 13 -35 17 -36 55 -6 116 33 64 33 85 -2 163 -38 84 -78 206 -98 298
-22 102 -30 327 -15 431 9 65 48 245 55 256 1 1 55 11 121 23 173 30 414 37
585 16 223 -28 375 -31 560 -11 91 10 203 21 250 25 85 8 302 4 373 -7z m1145
-215 c7 -7 12 -29 12 -50 l0 -38 -52 0 c-97 0 -208 -41 -294 -106 l-44 -34
-325 0 -325 0 0 120 0 120 508 0 c382 0 511 -3 520 -12z m631 -15 c174 -62
228 -292 102 -435 -100 -115 -293 -118 -398 -7 -123 130 -87 350 70 431 75 38
141 41 226 11z m-519 -181 l55 -18 3 -51 3 -51 -48 -18 c-35 -14 -75 -19 -149
-19 -96 0 -105 2 -169 35 -38 19 -70 40 -72 47 -5 14 72 60 130 78 59 19 181
17 247 -3z m1147 -23 c38 -19 68 -41 68 -49 0 -8 -31 -30 -69 -50 -65 -33 -74
-35 -170 -35 -74 0 -114 5 -149 19 l-48 18 3 51 3 51 55 18 c40 13 80 17 147
15 82 -3 99 -7 160 -38z m-1593 -123 c86 -65 197 -106 294 -106 l52 0 0 -38
c0 -21 -5 -43 -12 -50 -9 -9 -138 -12 -520 -12 l-508 0 0 120 0 120 325 0 325
0 44 -34z m631 -252 c-22 -52 -71 -119 -117 -159 -49 -43 -145 -91 -202 -101
l-39 -7 7 39 c21 116 126 253 236 307 l54 27 38 -36 c36 -36 37 -38 23 -70z
m639 47 c87 -60 164 -177 182 -275 l7 -39 -39 7 c-116 21 -253 126 -307 236
l-27 54 36 38 c36 36 38 37 70 23 19 -8 54 -28 78 -44z m-1033 -118 c-25 -49
-51 -139 -51 -175 l0 -28 -440 0 -440 0 0 120 0 120 475 0 475 0 -19 -37z
m696 -10 c13 -35 18 -75 18 -149 0 -96 -2 -105 -35 -170 -20 -38 -42 -69 -50
-69 -8 0 -30 30 -49 67 -51 100 -55 227 -11 342 8 23 15 26 59 26 l49 0 19
-47z m-548 -299 c19 -24 19 -28 6 -62 -31 -76 2 -72 -565 -72 -567 0 -534 -4
-565 72 -13 34 -13 38 6 62 l20 26 539 0 539 0 20 -26z"/>
<path d="M2880 4400 l0 -40 120 0 120 0 0 40 0 40 -120 0 -120 0 0 -40z"/>
<path d="M3200 4400 l0 -40 120 0 120 0 0 40 0 40 -120 0 -120 0 0 -40z"/>
<path d="M3880 4400 l0 -40 100 0 100 0 0 40 0 40 -100 0 -100 0 0 -40z"/>
<path d="M3947 3603 c-145 -233 -228 -384 -225 -410 3 -28 4 -28 81 -31 l77
-3 0 -299 0 -300 40 0 40 0 -2 338 -3 337 -57 5 -56 5 76 128 c42 70 79 127
82 127 3 0 40 -57 82 -127 l76 -128 -56 -5 -57 -5 -3 -337 -2 -338 40 0 40 0
0 300 0 299 78 3 77 3 3 30 c2 23 -25 76 -121 235 -115 192 -125 205 -154 208
-28 3 -35 -2 -56 -35z"/>
<path d="M626 1434 c-31 -103 -37 -387 -11 -541 17 -95 60 -250 74 -266 8 -8
81 19 81 31 0 4 -11 42 -25 85 -14 43 -32 117 -40 165 -21 114 -21 342 -1 446
9 44 14 81 13 82 -2 2 -21 6 -44 10 -35 5 -42 3 -47 -12z"/>
</g>
</svg>
