<?xml version="1.0" standalone="no"?>
<!DOCTYPE svg PUBLIC "-//W3C//DTD SVG 20010904//EN"
 "http://www.w3.org/TR/2001/REC-SVG-20010904/DTD/svg10.dtd">
<svg version="1.0" xmlns="http://www.w3.org/2000/svg"
 width="512.000000pt" height="512.000000pt" viewBox="0 0 512.000000 512.000000"
 preserveAspectRatio="xMidYMid meet">
<metadata>
Created by potrace 1.16, written by Peter Selinger 2001-2019
</metadata>
<g transform="translate(0.000000,512.000000) scale(0.100000,-0.100000)"
fill="#000000" stroke="none">
<path d="M2710 3697 c-32 -51 -111 -190 -108 -191 2 -2 25 -11 53 -21 29 -11
72 -39 103 -68 29 -28 54 -48 56 -46 18 22 126 231 122 237 -3 5 -49 28 -103
53 -54 24 -100 47 -103 51 -3 4 -12 -3 -20 -15z"/>
<path d="M2295 3665 c-55 -25 -104 -50 -109 -55 -5 -5 17 -55 54 -122 35 -62
64 -115 66 -117 2 -2 27 18 56 46 31 29 74 57 103 68 28 10 52 20 53 21 5 3
-112 204 -118 204 -3 0 -50 -21 -105 -45z"/>
<path d="M961 3064 c-51 -24 -100 -44 -108 -44 -15 0 -14 -3 162 -308 61 -106
114 -192 119 -192 4 0 5 42 2 93 -8 105 5 166 48 222 14 18 26 37 26 40 0 16
-135 235 -145 234 -5 0 -52 -20 -104 -45z"/>
<path d="M3977 2996 c-37 -63 -67 -117 -67 -121 0 -3 11 -21 25 -39 46 -60 57
-110 50 -218 -4 -54 -3 -98 1 -98 8 0 184 299 259 439 17 31 35 60 40 64 6 5
1 6 -11 2 -13 -3 -56 11 -118 40 -54 25 -101 45 -105 45 -4 0 -37 -51 -74
-114z"/>
</g>
</svg>
