<?xml version="1.0" standalone="no"?>
<!DOCTYPE svg PUBLIC "-//W3C//DTD SVG 20010904//EN"
 "http://www.w3.org/TR/2001/REC-SVG-20010904/DTD/svg10.dtd">
<svg version="1.0" xmlns="http://www.w3.org/2000/svg"
 width="512.000000pt" height="512.000000pt" viewBox="0 0 512.000000 512.000000"
 preserveAspectRatio="xMidYMid meet">
<metadata>
Created by potrace 1.16, written by Peter Selinger 2001-2019
</metadata>
<g transform="translate(0.000000,512.000000) scale(0.100000,-0.100000)"
fill="#000000" stroke="none">
<path d="M2617 5091 c-94 -33 -157 -63 -252 -119 -74 -43 -85 -56 -85 -103 0
-29 6 -42 26 -58 15 -12 35 -21 45 -21 10 0 78 31 151 69 216 113 299 126 450
71 254 -93 601 -376 808 -662 l50 -68 -1020 0 c-561 0 -1020 3 -1020 8 1 32
234 288 373 409 38 34 47 48 47 75 0 70 -53 102 -118 71 -20 -10 -101 -81
-178 -158 -137 -136 -239 -259 -293 -357 l-26 -48 -130 0 c-148 0 -178 -6
-255 -52 -108 -65 -178 -204 -168 -332 7 -77 47 -172 93 -216 l34 -33 -45 -58
c-44 -55 -84 -153 -84 -204 0 -23 0 -23 -162 -27 -159 -3 -165 -4 -230 -35
-132 -62 -208 -174 -216 -320 -10 -177 85 -322 249 -380 l49 -18 0 -213 0
-213 -327 -567 c-199 -344 -338 -595 -352 -637 -33 -93 -41 -289 -17 -386 47
-186 182 -358 346 -437 154 -75 108 -72 1025 -72 908 0 885 -1 1020 65 199 99
321 266 370 508 l5 27 234 0 233 0 27 -70 c76 -192 232 -357 426 -449 138 -66
190 -76 385 -75 155 0 178 3 258 27 165 51 307 135 422 251 81 81 135 159 135
193 0 36 -42 73 -84 73 -32 0 -42 -8 -102 -81 -37 -44 -95 -103 -128 -130 -74
-61 -236 -141 -331 -165 -94 -23 -260 -23 -345 -1 -151 40 -294 132 -385 248
-96 123 -138 238 -153 415 -10 109 -29 160 -83 213 -54 54 -104 73 -207 80
-90 6 -95 8 -123 39 -51 57 -33 144 37 177 31 14 53 17 118 12 155 -11 285
-77 374 -189 27 -35 31 -44 19 -53 -39 -29 -45 -98 -10 -127 13 -10 157 -14
715 -18 l700 -5 24 -28 c34 -40 32 -90 -6 -147 -36 -54 -38 -80 -6 -116 18
-21 32 -28 61 -28 43 0 68 25 110 108 29 58 34 164 12 219 -18 42 -63 95 -101
118 -26 16 -30 24 -32 73 -5 96 -32 135 -235 341 l-188 190 -11 130 c-26 314
-62 559 -132 909 -30 154 -38 211 -30 214 33 11 110 72 138 109 55 73 77 145
72 243 -5 96 -26 151 -84 219 l-35 41 34 42 c70 86 82 122 82 238 0 96 -2 110
-29 163 -35 68 -108 140 -174 170 -41 19 -68 22 -214 25 l-168 4 -53 81 c-221
338 -626 684 -936 798 -72 27 -103 32 -196 36 -102 4 -116 2 -198 -26z m1691
-1066 c74 -31 121 -102 122 -183 0 -56 -18 -97 -70 -154 l-42 -48 -201 0
c-192 0 -202 -1 -224 -22 -32 -30 -31 -81 2 -113 24 -25 25 -25 223 -25 l199
0 42 -46 c24 -25 49 -61 57 -79 35 -83 3 -185 -75 -240 l-43 -30 -595 -5 -595
-5 -19 -24 c-26 -32 -24 -77 6 -106 l24 -25 544 0 544 0 52 -262 c51 -262 80
-444 100 -633 6 -55 14 -119 17 -142 l5 -43 -42 15 c-23 8 -74 15 -114 15
-125 0 -160 -24 -434 -296 -129 -128 -240 -230 -245 -226 -6 3 -31 22 -56 41
-55 42 -166 94 -240 112 -30 8 -106 14 -170 14 -99 0 -121 -3 -156 -22 -104
-55 -154 -134 -154 -241 0 -89 16 -136 67 -192 58 -65 99 -82 212 -90 92 -6
94 -7 127 -43 29 -31 34 -44 34 -84 0 -27 3 -58 6 -70 l6 -23 -221 0 -221 0
-5 28 c-16 72 -30 121 -50 167 -12 28 -164 297 -338 598 l-317 548 0 219 c0
169 3 220 13 220 29 0 120 52 165 94 61 57 101 135 115 225 l11 71 36 0 c81 0
120 81 65 135 -21 21 -33 25 -89 25 -62 0 -66 2 -80 29 -24 45 -112 118 -174
143 -56 23 -64 23 -504 26 -389 2 -448 5 -448 18 0 29 30 87 71 135 l41 49
198 0 c184 0 199 1 224 21 33 26 37 88 6 119 -19 19 -33 20 -219 20 l-198 0
-51 54 c-55 58 -78 116 -68 175 9 56 56 122 105 148 l44 23 1469 0 c1303 0
1473 -2 1506 -15z m-2257 -916 c165 -50 206 -267 72 -378 -53 -44 -88 -51
-254 -51 -133 0 -149 -2 -173 -21 -34 -27 -37 -88 -4 -119 19 -17 35 -20 120
-20 l98 0 0 -230 c0 -172 3 -239 14 -263 7 -18 156 -279 330 -581 211 -366
326 -574 342 -622 86 -258 -60 -544 -329 -643 l-72 -26 -805 0 -805 0 -67 23
c-278 96 -427 386 -337 655 11 33 164 309 341 615 177 306 327 576 335 601 9
31 13 108 13 258 l0 213 99 0 c89 0 103 2 126 23 27 23 33 45 22 88 -10 41
-44 49 -205 49 -81 0 -164 5 -185 11 -49 13 -115 73 -138 124 -52 113 16 258
137 295 46 13 1279 12 1325 -1z m2252 -1415 c36 -19 434 -408 478 -468 16 -21
29 -52 29 -68 l0 -28 -382 0 c-369 0 -381 1 -365 18 10 10 17 35 17 55 0 81
-115 105 -149 30 -14 -31 -14 -42 3 -75 l15 -28 -122 0 -122 0 -17 31 c-10 17
-18 37 -18 45 0 20 379 404 453 460 49 37 66 44 103 44 25 0 59 -7 77 -16z"/>
<path d="M2122 3790 c-31 -13 -42 -49 -42 -141 0 -72 3 -82 25 -104 32 -33 83
-34 113 -2 19 20 22 35 22 116 0 84 -2 94 -25 116 -25 26 -54 30 -93 15z"/>
<path d="M3372 3790 c-31 -13 -42 -49 -42 -141 0 -72 3 -82 25 -104 32 -33 83
-34 113 -2 19 20 22 35 22 116 0 84 -2 94 -25 116 -25 26 -54 30 -93 15z"/>
<path d="M2565 3655 c-49 -48 -18 -116 75 -169 50 -28 63 -31 145 -31 76 0 98
4 138 25 96 49 130 118 86 174 -27 34 -76 35 -116 2 -72 -59 -129 -63 -197
-11 -56 42 -96 46 -131 10z"/>
<path d="M1293 2429 c-18 -5 -49 -25 -68 -45 -72 -71 -105 -176 -105 -329 0
-154 37 -263 111 -329 35 -33 39 -40 39 -86 l0 -49 -75 54 c-151 108 -281 121
-359 34 -58 -64 -60 -150 -7 -263 73 -152 231 -281 380 -309 l61 -12 0 -102 0
-102 -75 54 c-147 105 -270 120 -353 42 -105 -101 -35 -321 153 -476 65 -54
138 -90 214 -104 59 -11 61 -13 61 -43 0 -41 27 -64 77 -64 46 0 67 19 77 66
6 29 12 33 54 39 241 34 488 364 403 537 -31 62 -63 82 -143 86 -96 6 -160
-19 -277 -106 l-31 -23 0 99 0 100 47 7 c229 34 473 339 414 518 -27 81 -113
126 -210 107 -70 -13 -114 -33 -187 -86 l-64 -45 0 49 c0 41 5 53 31 78 76 72
110 175 110 334 0 252 -123 416 -278 369z m102 -242 c32 -105 13 -289 -34
-331 -19 -17 -20 -17 -36 8 -32 48 -44 100 -45 186 0 94 11 148 43 199 l20 34
19 -23 c10 -12 25 -45 33 -73z m-341 -644 c89 -45 180 -154 207 -246 11 -40
-9 -44 -76 -13 -75 34 -166 123 -206 200 -52 100 -34 114 75 59z m684 13 c6
-31 -50 -124 -109 -184 -57 -57 -116 -94 -171 -107 -25 -6 -28 -5 -28 19 0 77
116 216 222 266 68 32 81 33 86 6z m-684 -713 c89 -45 180 -154 207 -246 11
-40 -9 -44 -76 -13 -75 34 -166 123 -206 200 -52 100 -34 114 75 59z m684 13
c5 -23 -33 -98 -75 -149 -67 -80 -201 -162 -232 -142 -6 3 -6 18 -2 33 28 97
124 205 223 252 67 32 81 33 86 6z"/>
<path d="M4263 1468 c-47 -23 -53 -103 -10 -133 56 -39 127 -1 127 67 0 60
-59 94 -117 66z"/>
<path d="M2810 4712 c-35 -36 -38 -69 -9 -106 16 -20 29 -26 60 -26 50 0 79
27 79 74 0 43 -26 74 -67 82 -27 5 -37 1 -63 -24z"/>
<path d="M2310 4512 c-35 -36 -38 -69 -9 -106 16 -20 29 -26 60 -26 50 0 79
27 79 74 0 43 -26 74 -67 82 -27 5 -37 1 -63 -24z"/>
<path d="M3210 4512 c-35 -36 -38 -69 -9 -106 16 -20 29 -26 60 -26 50 0 79
27 79 74 0 43 -26 74 -67 82 -27 5 -37 1 -63 -24z"/>
</g>
</svg>
