<?xml version="1.0" standalone="no"?>
<!DOCTYPE svg PUBLIC "-//W3C//DTD SVG 20010904//EN"
 "http://www.w3.org/TR/2001/REC-SVG-20010904/DTD/svg10.dtd">
<svg version="1.0" xmlns="http://www.w3.org/2000/svg"
 width="512.000000pt" height="512.000000pt" viewBox="0 0 512.000000 512.000000"
 preserveAspectRatio="xMidYMid meet">
<metadata>
Created by potrace 1.16, written by Peter Selinger 2001-2019
</metadata>
<g transform="translate(0.000000,512.000000) scale(0.100000,-0.100000)"
fill="#000000" stroke="none">
<path d="M640 5098 c-38 -15 -74 -40 -116 -82 -73 -73 -100 -137 -110 -256
l-7 -80 -177 0 -177 0 -27 -26 -26 -27 0 -2287 0 -2287 26 -27 27 -26 722 0
722 0 27 26 c37 38 37 110 0 148 l-27 26 -648 0 -649 0 0 2140 0 2140 371 0
372 0 -6 -60 c-9 -103 -62 -162 -157 -175 -69 -9 -100 -42 -100 -105 0 -38 5
-53 26 -74 23 -23 35 -26 90 -26 96 0 166 30 240 104 73 73 100 137 110 256
l7 80 455 0 455 0 -6 -60 c-9 -103 -62 -162 -157 -175 -69 -9 -100 -42 -100
-105 0 -38 5 -53 26 -74 23 -23 35 -26 90 -26 96 0 166 30 240 104 73 73 100
137 110 256 l7 80 455 0 455 0 -6 -60 c-9 -103 -62 -162 -157 -175 -69 -9
-100 -42 -100 -105 0 -38 5 -53 26 -74 23 -23 35 -26 90 -26 96 0 166 30 240
104 73 73 100 137 110 256 l7 80 103 0 104 0 0 -748 0 -748 -76 -74 c-135
-133 -135 -160 -8 -290 l84 -86 0 -211 0 -211 -42 5 c-109 12 -256 -44 -344
-131 -131 -132 -168 -332 -90 -501 l25 -55 -314 0 -313 0 -31 -26 c-30 -25
-31 -27 -31 -118 0 -233 80 -486 220 -699 67 -100 213 -254 313 -329 l79 -58
-385 0 -384 0 -27 -26 c-37 -38 -37 -110 0 -148 l27 -26 812 0 c701 0 824 2
906 16 400 69 759 331 947 693 94 182 138 341 149 538 l6 122 -31 30 -30 31
-576 0 -575 0 24 53 c76 167 42 367 -84 498 l-51 53 0 150 0 150 28 -27 c40
-38 84 -51 125 -38 39 13 451 422 462 459 18 59 3 80 -223 304 -139 139 -227
219 -244 224 -40 9 -72 -2 -113 -37 l-35 -31 0 720 0 719 -26 27 -27 26 -177
0 -177 0 -7 80 c-10 119 -37 183 -110 256 -78 78 -143 104 -256 104 -113 0
-178 -26 -256 -104 -73 -73 -100 -137 -110 -256 l-7 -80 -187 0 -187 0 -7 80
c-10 119 -37 183 -110 256 -78 78 -143 104 -256 104 -113 0 -178 -26 -256
-104 -73 -73 -100 -137 -110 -256 l-7 -80 -187 0 -187 0 -7 80 c-10 119 -37
183 -110 256 -79 79 -143 104 -259 103 -58 0 -98 -6 -137 -21z m220 -211 c47
-31 71 -77 77 -147 l6 -60 -163 0 -163 0 6 60 c9 106 68 170 157 170 32 0 58
-7 80 -23z m1120 0 c47 -31 71 -77 77 -147 l6 -60 -163 0 -163 0 6 60 c9 106
68 170 157 170 32 0 58 -7 80 -23z m1120 0 c47 -31 71 -77 77 -147 l6 -60
-163 0 -163 0 6 60 c9 106 68 170 157 170 32 0 58 -7 80 -23z m945 -2007 l120
-120 -123 -123 -122 -122 -122 122 -123 123 120 120 c66 66 122 120 125 120 3
0 59 -54 125 -120z m-405 -1003 c157 -80 165 -315 14 -403 -88 -52 -173 -51
-254 2 -125 83 -142 253 -35 359 75 76 178 92 275 42z m1263 -694 c-35 -245
-143 -461 -318 -638 -224 -226 -484 -336 -795 -336 -299 0 -557 103 -772 310
-135 128 -229 273 -291 448 -22 59 -57 212 -57 244 0 5 472 9 1119 9 l1120 0
-6 -37z"/>
<path d="M688 3514 c-36 -19 -48 -43 -48 -94 0 -33 6 -48 29 -71 65 -64 171
-20 171 71 0 52 -13 76 -50 95 -36 19 -67 19 -102 -1z"/>
<path d="M1200 3523 c-30 -11 -60 -47 -66 -79 -8 -41 18 -97 52 -113 18 -8
166 -11 499 -11 l473 0 30 25 c53 44 47 130 -11 165 -31 19 -53 20 -497 19
-256 0 -472 -3 -480 -6z"/>
<path d="M2691 3179 c-25 -24 -41 -59 -41 -94 0 -16 -7 -26 -22 -30 -46 -14
-128 -78 -162 -128 -47 -70 -70 -154 -63 -231 11 -116 108 -601 128 -643 23
-48 77 -99 128 -121 21 -9 64 -15 102 -15 106 0 193 57 233 154 23 57 119 588
118 659 -1 96 -32 172 -101 241 -32 31 -76 64 -103 75 -45 18 -48 21 -48 57 0
56 -43 97 -102 97 -31 0 -51 -6 -67 -21z m123 -323 c39 -16 72 -56 85 -101 13
-47 -91 -604 -116 -622 -22 -17 -30 -16 -51 5 -23 23 -127 568 -117 613 13 59
84 118 143 119 12 0 37 -6 56 -14z"/>
<path d="M671 2784 c-27 -22 -31 -32 -31 -74 0 -72 53 -116 125 -102 13 2 36
16 50 29 20 20 25 36 25 73 0 42 -4 52 -31 74 -21 18 -42 26 -69 26 -27 0 -48
-8 -69 -26z"/>
<path d="M1177 2799 c-22 -13 -47 -61 -47 -91 0 -40 36 -86 77 -98 26 -8 179
-10 493 -8 508 3 499 2 518 72 13 45 5 80 -25 111 l-26 25 -486 0 c-311 0
-492 -4 -504 -11z"/>
<path d="M4503 2247 l-343 -342 0 -47 c0 -55 27 -87 124 -150 86 -56 171 -79
286 -80 196 -2 358 84 465 245 60 91 77 148 83 277 4 105 2 122 -22 193 -31
92 -77 169 -130 215 -29 25 -46 32 -79 32 -42 0 -43 -1 -384 -343z m397 18
c19 -68 9 -179 -23 -240 -58 -114 -178 -189 -302 -188 -43 0 -85 7 -110 17
l-39 17 224 224 c123 123 227 222 230 220 4 -3 13 -25 20 -50z"/>
<path d="M694 2091 c-57 -25 -73 -117 -30 -168 21 -24 32 -28 76 -28 44 0 55
4 76 28 32 38 33 105 1 142 -24 29 -86 42 -123 26z"/>
<path d="M1168 2071 c-28 -25 -33 -36 -33 -76 0 -40 5 -51 33 -76 l32 -29 478
0 c529 0 510 -2 538 65 16 39 4 93 -27 121 -20 18 -46 19 -505 22 l-483 3 -33
-30z"/>
<path d="M666 1354 c-37 -38 -37 -110 0 -148 38 -37 110 -37 148 0 37 38 37
110 0 148 -21 21 -36 26 -74 26 -38 0 -53 -5 -74 -26z"/>
<path d="M1165 1356 c-45 -45 -45 -107 0 -152 l24 -24 489 0 489 0 26 25 c43
44 43 106 0 150 l-26 25 -489 0 -489 0 -24 -24z"/>
<path d="M1826 174 c-21 -21 -26 -36 -26 -74 0 -66 34 -100 100 -100 66 0 100
34 100 100 0 38 -5 53 -26 74 -21 21 -36 26 -74 26 -38 0 -53 -5 -74 -26z"/>
</g>
</svg>
