<?xml version="1.0" standalone="no"?>
<!DOCTYPE svg PUBLIC "-//W3C//DTD SVG 20010904//EN"
  "http://www.w3.org/TR/2001/REC-SVG-20010904/DTD/svg10.dtd">
<svg version="1.0"
    xmlns="http://www.w3.org/2000/svg" width="391.000000pt" height="329.000000pt" viewBox="0 0 391.000000 329.000000" preserveAspectRatio="xMidYMid meet">
    <g transform="translate(0.000000,329.000000) scale(0.100000,-0.100000)" fill="rgba(255,0,0,0.5)" stroke="none">
        <path d="M1810 3158 c-318 -22 -574 -114 -820 -296 -113 -83 -286 -263 -359 -372 -122 -183 -210 -398 -247 -605 -24 -133 -24 -373 0 -510 60 -347 207 -625 466 -886 119 -120 194 -176 330 -247 481 -251 1019 -253 1480 -5 125 67 202 125 323 242 183 178 315 383 405 627 75 205 109 484 83 694 -68 557 -451 1053 -974 1261 -196 79 -444 113 -687 97z m148 -863 c70 -21 129 -70 163 -134 24 -44 29 -66 29 -123 0 -114 -17 -137 -310 -430 -141 -142 -269 -262 -284 -268 -56 -21 -83 -13 -164 47 l-30 23 -90 -90 c-49 -49 -101 -94 -114 -99 -31 -12 -84 10 -93 39 -13 40 4 67 102 163 97 95 97 96 76 114 -58 51 -81 143 -46 192 9 13 130 138 270 277 243 243 287 279 358 297 39 9 82 7 133 -8z m805 -317 c38 -44 18 -82 -107 -201 l-78 -75 36 -40 c20 -21 39 -53 42 -70 15 -76 9 -84 -274 -368 -194 -194 -279 -273 -312 -288 -64 -29 -169 -27 -230 4 -125 63 -180 207 -133 346 14 43 50 83 287 321 231 231 277 272 308 278 47 9 98 -8 134 -45 16 -16 32 -30 35 -30 3 0 47 41 98 90 50 50 102 95 114 100 29 11 58 3 80 -22z"/>
    </g>
</svg>
